<mxfile host="Electron" modified="2024-05-15T01:29:04.981Z" agent="Mozilla/5.0 (Windows NT 10.0; Win64; x64) AppleWebKit/537.36 (KHTML, like Gecko) draw.io/23.1.5 Chrome/120.0.6099.109 Electron/28.1.0 Safari/537.36" etag="T9IOfChO-MBn386gYwms" version="23.1.5" type="device">
  <diagram name="Page-1" id="nHMYM724kWh_E-jzE1MM">
    <mxGraphModel dx="3079" dy="2817" grid="1" gridSize="10" guides="1" tooltips="1" connect="1" arrows="1" fold="1" page="1" pageScale="1" pageWidth="850" pageHeight="1400" math="0" shadow="0">
      <root>
        <mxCell id="0" />
        <mxCell id="1" parent="0" />
        <mxCell id="jVnBFIT5BV6Da5XGVnSo-4" value="" style="ellipse;whiteSpace=wrap;html=1;aspect=fixed;fillColor=none;" parent="1" vertex="1">
          <mxGeometry x="397.5" y="32.5" width="80" height="80" as="geometry" />
        </mxCell>
        <mxCell id="jVnBFIT5BV6Da5XGVnSo-5" value="" style="triangle;whiteSpace=wrap;html=1;direction=south;fillColor=#000000;fontColor=#ffffff;strokeColor=#000000;" parent="1" vertex="1">
          <mxGeometry x="-466.25" y="47.5" width="10" height="10" as="geometry" />
        </mxCell>
        <mxCell id="jVnBFIT5BV6Da5XGVnSo-10" value="" style="triangle;whiteSpace=wrap;html=1;direction=south;fillColor=#000000;fontColor=#ffffff;strokeColor=#000000;" parent="1" vertex="1">
          <mxGeometry x="432.5" y="35" width="10" height="10" as="geometry" />
        </mxCell>
        <mxCell id="jVnBFIT5BV6Da5XGVnSo-12" value="Начало процесса" style="text;html=1;align=center;verticalAlign=middle;whiteSpace=wrap;rounded=0;" parent="1" vertex="1">
          <mxGeometry x="-456.25" y="37.5" width="110" height="30" as="geometry" />
        </mxCell>
        <mxCell id="jVnBFIT5BV6Da5XGVnSo-14" value="" style="triangle;whiteSpace=wrap;html=1;direction=north;fillColor=#000000;fontColor=#ffffff;strokeColor=#000000;" parent="1" vertex="1">
          <mxGeometry x="-466.25" y="77.5" width="10" height="10" as="geometry" />
        </mxCell>
        <mxCell id="jVnBFIT5BV6Da5XGVnSo-17" value="Конец процесса" style="text;html=1;align=center;verticalAlign=middle;whiteSpace=wrap;rounded=0;" parent="1" vertex="1">
          <mxGeometry x="-456.25" y="67.5" width="110" height="30" as="geometry" />
        </mxCell>
        <mxCell id="jVnBFIT5BV6Da5XGVnSo-18" value="" style="ellipse;whiteSpace=wrap;html=1;aspect=fixed;fillColor=#000000;" parent="1" vertex="1">
          <mxGeometry x="-466.25" y="107.5" width="10" height="10" as="geometry" />
        </mxCell>
        <mxCell id="jVnBFIT5BV6Da5XGVnSo-19" value="Устойчивое состояние" style="text;html=1;align=center;verticalAlign=middle;whiteSpace=wrap;rounded=0;" parent="1" vertex="1">
          <mxGeometry x="-456.25" y="97.5" width="140" height="30" as="geometry" />
        </mxCell>
        <mxCell id="jVnBFIT5BV6Da5XGVnSo-20" value="" style="ellipse;whiteSpace=wrap;html=1;aspect=fixed;fillColor=#000000;" parent="1" vertex="1">
          <mxGeometry x="-486.25" y="137.5" width="10" height="10" as="geometry" />
        </mxCell>
        <mxCell id="jVnBFIT5BV6Da5XGVnSo-21" value="" style="ellipse;whiteSpace=wrap;html=1;aspect=fixed;fillColor=#000000;" parent="1" vertex="1">
          <mxGeometry x="-466.25" y="137.5" width="10" height="10" as="geometry" />
        </mxCell>
        <mxCell id="jVnBFIT5BV6Da5XGVnSo-23" value="Изменённое состояние" style="text;html=1;align=center;verticalAlign=middle;whiteSpace=wrap;rounded=0;" parent="1" vertex="1">
          <mxGeometry x="-456.25" y="127.5" width="140" height="30" as="geometry" />
        </mxCell>
        <mxCell id="jVnBFIT5BV6Da5XGVnSo-24" value="" style="whiteSpace=wrap;html=1;aspect=fixed;fillColor=#000000;" parent="1" vertex="1">
          <mxGeometry x="-466.25" y="167.5" width="10" height="10" as="geometry" />
        </mxCell>
        <mxCell id="jVnBFIT5BV6Da5XGVnSo-25" value="Метод / Процесс / Действие" style="text;html=1;align=center;verticalAlign=middle;whiteSpace=wrap;rounded=0;" parent="1" vertex="1">
          <mxGeometry x="-456.25" y="157.5" width="170" height="30" as="geometry" />
        </mxCell>
        <mxCell id="jVnBFIT5BV6Da5XGVnSo-26" value="" style="ellipse;whiteSpace=wrap;html=1;aspect=fixed;" parent="1" vertex="1">
          <mxGeometry x="-466.25" y="197.5" width="10" height="10" as="geometry" />
        </mxCell>
        <mxCell id="jVnBFIT5BV6Da5XGVnSo-27" value="Событие" style="text;html=1;align=center;verticalAlign=middle;whiteSpace=wrap;rounded=0;" parent="1" vertex="1">
          <mxGeometry x="-456.25" y="187.5" width="70" height="30" as="geometry" />
        </mxCell>
        <mxCell id="jVnBFIT5BV6Da5XGVnSo-28" value="" style="whiteSpace=wrap;html=1;aspect=fixed;fillColor=none;" parent="1" vertex="1">
          <mxGeometry x="-500" y="15" width="227.5" height="227.5" as="geometry" />
        </mxCell>
        <mxCell id="jVnBFIT5BV6Da5XGVnSo-29" value="&lt;font style=&quot;font-size: 10px;&quot;&gt;Начало (начало рассмотрения отчета&lt;/font&gt;" style="text;html=1;align=center;verticalAlign=middle;rounded=0;fillColor=none;strokeWidth=2;strokeColor=none;fontSize=10;whiteSpace=wrap;" parent="1" vertex="1">
          <mxGeometry x="406.25" y="47.5" width="62.5" height="50" as="geometry" />
        </mxCell>
        <mxCell id="8_V0k7mfxFpGvZP9v4ZQ-107" style="edgeStyle=orthogonalEdgeStyle;rounded=0;orthogonalLoop=1;jettySize=auto;html=1;exitX=0;exitY=0.5;exitDx=0;exitDy=0;" edge="1" parent="1" source="jVnBFIT5BV6Da5XGVnSo-33">
          <mxGeometry relative="1" as="geometry">
            <mxPoint x="60" y="450" as="targetPoint" />
            <Array as="points">
              <mxPoint x="397" y="270" />
              <mxPoint x="61" y="270" />
              <mxPoint x="61" y="450" />
            </Array>
          </mxGeometry>
        </mxCell>
        <mxCell id="8_V0k7mfxFpGvZP9v4ZQ-113" style="edgeStyle=orthogonalEdgeStyle;rounded=0;orthogonalLoop=1;jettySize=auto;html=1;exitX=0.5;exitY=1;exitDx=0;exitDy=0;" edge="1" parent="1" source="jVnBFIT5BV6Da5XGVnSo-33">
          <mxGeometry relative="1" as="geometry">
            <mxPoint x="310" y="720" as="targetPoint" />
            <Array as="points">
              <mxPoint x="437" y="470" />
              <mxPoint x="311" y="470" />
              <mxPoint x="311" y="720" />
            </Array>
          </mxGeometry>
        </mxCell>
        <mxCell id="8_V0k7mfxFpGvZP9v4ZQ-115" style="edgeStyle=orthogonalEdgeStyle;rounded=0;orthogonalLoop=1;jettySize=auto;html=1;exitX=0.5;exitY=1;exitDx=0;exitDy=0;" edge="1" parent="1" source="jVnBFIT5BV6Da5XGVnSo-33">
          <mxGeometry relative="1" as="geometry">
            <mxPoint x="540" y="730" as="targetPoint" />
            <Array as="points">
              <mxPoint x="437" y="470" />
              <mxPoint x="541" y="470" />
              <mxPoint x="541" y="730" />
            </Array>
          </mxGeometry>
        </mxCell>
        <mxCell id="8_V0k7mfxFpGvZP9v4ZQ-144" style="edgeStyle=orthogonalEdgeStyle;rounded=0;orthogonalLoop=1;jettySize=auto;html=1;exitX=1;exitY=0;exitDx=0;exitDy=0;" edge="1" parent="1" source="jVnBFIT5BV6Da5XGVnSo-33">
          <mxGeometry relative="1" as="geometry">
            <mxPoint x="680" y="-10" as="targetPoint" />
            <Array as="points">
              <mxPoint x="500" y="157" />
              <mxPoint x="500" y="-20" />
              <mxPoint x="681" y="-20" />
              <mxPoint x="681" y="-10" />
            </Array>
          </mxGeometry>
        </mxCell>
        <mxCell id="8_V0k7mfxFpGvZP9v4ZQ-145" style="edgeStyle=orthogonalEdgeStyle;rounded=0;orthogonalLoop=1;jettySize=auto;html=1;exitX=1;exitY=0;exitDx=0;exitDy=0;" edge="1" parent="1" source="jVnBFIT5BV6Da5XGVnSo-33">
          <mxGeometry relative="1" as="geometry">
            <mxPoint x="780" y="-10" as="targetPoint" />
            <Array as="points">
              <mxPoint x="490" y="157" />
              <mxPoint x="490" y="-120" />
              <mxPoint x="730" y="-120" />
              <mxPoint x="730" y="-10" />
            </Array>
          </mxGeometry>
        </mxCell>
        <mxCell id="8_V0k7mfxFpGvZP9v4ZQ-146" style="edgeStyle=orthogonalEdgeStyle;rounded=0;orthogonalLoop=1;jettySize=auto;html=1;exitX=1;exitY=0;exitDx=0;exitDy=0;" edge="1" parent="1" source="jVnBFIT5BV6Da5XGVnSo-33">
          <mxGeometry relative="1" as="geometry">
            <mxPoint x="880" y="-10" as="targetPoint" />
            <Array as="points">
              <mxPoint x="480" y="157" />
              <mxPoint x="480" y="-140" />
              <mxPoint x="830" y="-140" />
              <mxPoint x="830" y="-10" />
            </Array>
          </mxGeometry>
        </mxCell>
        <mxCell id="8_V0k7mfxFpGvZP9v4ZQ-191" style="edgeStyle=orthogonalEdgeStyle;rounded=0;orthogonalLoop=1;jettySize=auto;html=1;exitX=0;exitY=0;exitDx=0;exitDy=0;entryX=1;entryY=0.5;entryDx=0;entryDy=0;" edge="1" parent="1" source="jVnBFIT5BV6Da5XGVnSo-33" target="8_V0k7mfxFpGvZP9v4ZQ-154">
          <mxGeometry relative="1" as="geometry" />
        </mxCell>
        <mxCell id="jVnBFIT5BV6Da5XGVnSo-33" value="" style="ellipse;whiteSpace=wrap;html=1;aspect=fixed;fillColor=none;" parent="1" vertex="1">
          <mxGeometry x="397.5" y="145" width="80" height="80" as="geometry" />
        </mxCell>
        <mxCell id="jVnBFIT5BV6Da5XGVnSo-36" value="" style="ellipse;whiteSpace=wrap;html=1;aspect=fixed;fillColor=#000000;" parent="1" vertex="1">
          <mxGeometry x="432.5" y="155" width="10" height="10" as="geometry" />
        </mxCell>
        <mxCell id="8_V0k7mfxFpGvZP9v4ZQ-188" style="edgeStyle=orthogonalEdgeStyle;rounded=0;orthogonalLoop=1;jettySize=auto;html=1;exitX=1;exitY=1;exitDx=0;exitDy=0;" edge="1" parent="1" source="jVnBFIT5BV6Da5XGVnSo-37">
          <mxGeometry relative="1" as="geometry">
            <mxPoint x="830" y="500" as="targetPoint" />
            <Array as="points">
              <mxPoint x="510" y="210" />
              <mxPoint x="510" y="370" />
              <mxPoint x="790" y="370" />
              <mxPoint x="790" y="500" />
            </Array>
          </mxGeometry>
        </mxCell>
        <mxCell id="jVnBFIT5BV6Da5XGVnSo-37" value="MainForm" style="text;html=1;align=center;verticalAlign=middle;rounded=0;fillColor=none;strokeWidth=2;strokeColor=none;fontSize=10;whiteSpace=wrap;" parent="1" vertex="1">
          <mxGeometry x="406.25" y="160" width="62.5" height="50" as="geometry" />
        </mxCell>
        <mxCell id="8_V0k7mfxFpGvZP9v4ZQ-109" style="edgeStyle=orthogonalEdgeStyle;rounded=0;orthogonalLoop=1;jettySize=auto;html=1;exitX=0;exitY=0.5;exitDx=0;exitDy=0;entryX=0.5;entryY=0;entryDx=0;entryDy=0;" edge="1" parent="1" source="jVnBFIT5BV6Da5XGVnSo-42" target="8_V0k7mfxFpGvZP9v4ZQ-75">
          <mxGeometry relative="1" as="geometry" />
        </mxCell>
        <mxCell id="8_V0k7mfxFpGvZP9v4ZQ-110" style="edgeStyle=orthogonalEdgeStyle;rounded=0;orthogonalLoop=1;jettySize=auto;html=1;exitX=0;exitY=0.5;exitDx=0;exitDy=0;entryX=0.5;entryY=0;entryDx=0;entryDy=0;" edge="1" parent="1" source="jVnBFIT5BV6Da5XGVnSo-42" target="8_V0k7mfxFpGvZP9v4ZQ-73">
          <mxGeometry relative="1" as="geometry" />
        </mxCell>
        <mxCell id="8_V0k7mfxFpGvZP9v4ZQ-111" style="edgeStyle=orthogonalEdgeStyle;rounded=0;orthogonalLoop=1;jettySize=auto;html=1;exitX=0;exitY=0.5;exitDx=0;exitDy=0;entryX=0.5;entryY=0;entryDx=0;entryDy=0;" edge="1" parent="1" source="jVnBFIT5BV6Da5XGVnSo-42" target="8_V0k7mfxFpGvZP9v4ZQ-71">
          <mxGeometry relative="1" as="geometry" />
        </mxCell>
        <mxCell id="jVnBFIT5BV6Da5XGVnSo-42" value="" style="ellipse;whiteSpace=wrap;html=1;aspect=fixed;fillColor=none;" parent="1" vertex="1">
          <mxGeometry x="16.25" y="470" width="80" height="80" as="geometry" />
        </mxCell>
        <mxCell id="jVnBFIT5BV6Da5XGVnSo-112" value="&lt;font size=&quot;1&quot;&gt;Справочное окно&lt;/font&gt;" style="text;html=1;align=center;verticalAlign=middle;rounded=0;fillColor=none;strokeWidth=2;strokeColor=none;fontSize=10;whiteSpace=wrap;" parent="1" vertex="1">
          <mxGeometry x="25.939999999999998" y="510" width="60.62" height="20" as="geometry" />
        </mxCell>
        <mxCell id="99cMVNxfS5Q4umWrUMVF-26" style="edgeStyle=orthogonalEdgeStyle;rounded=0;orthogonalLoop=1;jettySize=auto;html=1;exitX=0.5;exitY=1;exitDx=0;exitDy=0;" parent="1" source="jVnBFIT5BV6Da5XGVnSo-148" edge="1">
          <mxGeometry relative="1" as="geometry">
            <mxPoint x="56.554347826086996" y="450" as="targetPoint" />
          </mxGeometry>
        </mxCell>
        <mxCell id="jVnBFIT5BV6Da5XGVnSo-148" value="" style="ellipse;whiteSpace=wrap;html=1;aspect=fixed;fillColor=none;" parent="1" vertex="1">
          <mxGeometry x="-70" y="295" width="80" height="80" as="geometry" />
        </mxCell>
        <mxCell id="jVnBFIT5BV6Da5XGVnSo-149" value="&lt;font size=&quot;1&quot;&gt;Нажата кнопка &quot;Справка&quot;&lt;br&gt;&lt;/font&gt;" style="text;html=1;align=center;verticalAlign=middle;rounded=0;fillColor=none;strokeWidth=2;strokeColor=none;fontSize=10;whiteSpace=wrap;" parent="1" vertex="1">
          <mxGeometry x="-60.31" y="325" width="60.62" height="20" as="geometry" />
        </mxCell>
        <mxCell id="jVnBFIT5BV6Da5XGVnSo-150" value="" style="endArrow=none;html=1;rounded=0;strokeWidth=2;" parent="1" edge="1">
          <mxGeometry width="50" height="50" relative="1" as="geometry">
            <mxPoint x="18.75" y="450" as="sourcePoint" />
            <mxPoint x="93.75" y="450" as="targetPoint" />
          </mxGeometry>
        </mxCell>
        <mxCell id="jVnBFIT5BV6Da5XGVnSo-153" value="" style="endArrow=classic;html=1;rounded=0;entryX=0.5;entryY=0;entryDx=0;entryDy=0;" parent="1" target="jVnBFIT5BV6Da5XGVnSo-42" edge="1">
          <mxGeometry width="50" height="50" relative="1" as="geometry">
            <mxPoint x="56.25" y="450" as="sourcePoint" />
            <mxPoint x="66.25" y="430" as="targetPoint" />
          </mxGeometry>
        </mxCell>
        <mxCell id="99cMVNxfS5Q4umWrUMVF-21" value="" style="ellipse;whiteSpace=wrap;html=1;aspect=fixed;fillColor=#000000;" parent="1" vertex="1">
          <mxGeometry x="51.25" y="490" width="10" height="10" as="geometry" />
        </mxCell>
        <mxCell id="99cMVNxfS5Q4umWrUMVF-27" value="" style="endArrow=none;html=1;rounded=0;strokeWidth=2;" parent="1" edge="1">
          <mxGeometry width="50" height="50" relative="1" as="geometry">
            <mxPoint x="267.5" y="725" as="sourcePoint" />
            <mxPoint x="342.5" y="725" as="targetPoint" />
          </mxGeometry>
        </mxCell>
        <mxCell id="99cMVNxfS5Q4umWrUMVF-28" value="" style="endArrow=classic;html=1;rounded=0;entryX=0.453;entryY=0.007;entryDx=0;entryDy=0;entryPerimeter=0;" parent="1" edge="1">
          <mxGeometry width="50" height="50" relative="1" as="geometry">
            <mxPoint x="307.41" y="725" as="sourcePoint" />
            <mxPoint x="307.49" y="755.5600000000002" as="targetPoint" />
          </mxGeometry>
        </mxCell>
        <mxCell id="cVFr7yRleSdVNO2gR8RI-4" value="" style="endArrow=classic;html=1;rounded=0;exitX=0.5;exitY=1;exitDx=0;exitDy=0;entryX=0.5;entryY=0;entryDx=0;entryDy=0;" parent="1" source="jVnBFIT5BV6Da5XGVnSo-4" target="jVnBFIT5BV6Da5XGVnSo-33" edge="1">
          <mxGeometry width="50" height="50" relative="1" as="geometry">
            <mxPoint x="290" y="300" as="sourcePoint" />
            <mxPoint x="437.5" y="125" as="targetPoint" />
          </mxGeometry>
        </mxCell>
        <mxCell id="cVFr7yRleSdVNO2gR8RI-6" value="" style="ellipse;whiteSpace=wrap;html=1;aspect=fixed;fillColor=none;" parent="1" vertex="1">
          <mxGeometry x="204.86" y="605" width="80" height="80" as="geometry" />
        </mxCell>
        <mxCell id="cVFr7yRleSdVNO2gR8RI-7" value="&lt;font size=&quot;1&quot;&gt;Был загружен печатный файл&lt;br&gt;&lt;/font&gt;" style="text;html=1;align=center;verticalAlign=middle;rounded=0;fillColor=none;strokeWidth=2;strokeColor=none;fontSize=10;whiteSpace=wrap;" parent="1" vertex="1">
          <mxGeometry x="214.55000000000007" y="635" width="60.62" height="20" as="geometry" />
        </mxCell>
        <mxCell id="cVFr7yRleSdVNO2gR8RI-8" value="" style="endArrow=classic;html=1;rounded=0;exitX=0.5;exitY=1;exitDx=0;exitDy=0;" parent="1" source="cVFr7yRleSdVNO2gR8RI-6" edge="1">
          <mxGeometry width="50" height="50" relative="1" as="geometry">
            <mxPoint x="225" y="635" as="sourcePoint" />
            <mxPoint x="305" y="725" as="targetPoint" />
          </mxGeometry>
        </mxCell>
        <mxCell id="cVFr7yRleSdVNO2gR8RI-9" value="" style="ellipse;whiteSpace=wrap;html=1;aspect=fixed;fillColor=none;" parent="1" vertex="1">
          <mxGeometry x="316.25000000000006" y="600" width="90" height="90" as="geometry" />
        </mxCell>
        <mxCell id="cVFr7yRleSdVNO2gR8RI-10" value="Нажата кнопка &quot;Сохранить в Word&quot;&lt;font size=&quot;1&quot;&gt;&lt;br&gt;&lt;/font&gt;" style="text;html=1;align=center;verticalAlign=middle;rounded=0;fillColor=none;strokeWidth=2;strokeColor=none;fontSize=10;whiteSpace=wrap;" parent="1" vertex="1">
          <mxGeometry x="331.0900000000001" y="630" width="60.31" height="20" as="geometry" />
        </mxCell>
        <mxCell id="cVFr7yRleSdVNO2gR8RI-11" value="" style="endArrow=classic;html=1;rounded=0;exitX=0.5;exitY=1;exitDx=0;exitDy=0;" parent="1" source="cVFr7yRleSdVNO2gR8RI-9" edge="1">
          <mxGeometry width="50" height="50" relative="1" as="geometry">
            <mxPoint x="405" y="585" as="sourcePoint" />
            <mxPoint x="305" y="725" as="targetPoint" />
          </mxGeometry>
        </mxCell>
        <mxCell id="cVFr7yRleSdVNO2gR8RI-21" value="" style="ellipse;whiteSpace=wrap;html=1;aspect=fixed;fillColor=none;" parent="1" vertex="1">
          <mxGeometry x="271.25" y="755" width="80" height="80" as="geometry" />
        </mxCell>
        <mxCell id="cVFr7yRleSdVNO2gR8RI-22" value="Данные сохраняются в новый Word файл&lt;font size=&quot;1&quot;&gt;&lt;br&gt;&lt;/font&gt;" style="text;html=1;align=center;verticalAlign=middle;rounded=0;fillColor=none;strokeWidth=2;strokeColor=none;fontSize=10;whiteSpace=wrap;" parent="1" vertex="1">
          <mxGeometry x="284.86" y="795" width="52.81" height="20" as="geometry" />
        </mxCell>
        <mxCell id="cVFr7yRleSdVNO2gR8RI-23" value="" style="whiteSpace=wrap;html=1;aspect=fixed;fillColor=#000000;" parent="1" vertex="1">
          <mxGeometry x="306.25" y="765" width="10" height="10" as="geometry" />
        </mxCell>
        <mxCell id="NhHnIEGPWBSdgA2dh0-2-4" value="" style="ellipse;whiteSpace=wrap;html=1;aspect=fixed;fillColor=none;" parent="1" vertex="1">
          <mxGeometry x="795.0000000000001" y="385" width="80" height="80" as="geometry" />
        </mxCell>
        <mxCell id="NhHnIEGPWBSdgA2dh0-2-5" value="&lt;font size=&quot;1&quot;&gt;Нажата кнопка&lt;br&gt;&quot;Добавить в БД&quot;&lt;br&gt;&lt;/font&gt;" style="text;html=1;align=center;verticalAlign=middle;rounded=0;fillColor=none;strokeWidth=2;strokeColor=none;fontSize=10;whiteSpace=wrap;" parent="1" vertex="1">
          <mxGeometry x="804.6900000000002" y="415" width="60.62" height="20" as="geometry" />
        </mxCell>
        <mxCell id="NhHnIEGPWBSdgA2dh0-2-6" value="" style="endArrow=none;html=1;rounded=0;strokeWidth=2;" parent="1" edge="1">
          <mxGeometry width="50" height="50" relative="1" as="geometry">
            <mxPoint x="791.25" y="505" as="sourcePoint" />
            <mxPoint x="866.25" y="505" as="targetPoint" />
          </mxGeometry>
        </mxCell>
        <mxCell id="NhHnIEGPWBSdgA2dh0-2-7" value="" style="endArrow=classic;html=1;rounded=0;entryX=0.453;entryY=0.007;entryDx=0;entryDy=0;entryPerimeter=0;" parent="1" edge="1">
          <mxGeometry width="50" height="50" relative="1" as="geometry">
            <mxPoint x="831.1600000000001" y="505" as="sourcePoint" />
            <mxPoint x="831.24" y="535.5600000000002" as="targetPoint" />
          </mxGeometry>
        </mxCell>
        <mxCell id="8_V0k7mfxFpGvZP9v4ZQ-189" style="edgeStyle=orthogonalEdgeStyle;rounded=0;orthogonalLoop=1;jettySize=auto;html=1;exitX=0.5;exitY=1;exitDx=0;exitDy=0;entryX=0.962;entryY=0.69;entryDx=0;entryDy=0;entryPerimeter=0;" edge="1" parent="1" source="NhHnIEGPWBSdgA2dh0-2-8" target="jVnBFIT5BV6Da5XGVnSo-33">
          <mxGeometry relative="1" as="geometry">
            <mxPoint x="920" y="320" as="targetPoint" />
            <Array as="points">
              <mxPoint x="920" y="615" />
              <mxPoint x="920" y="200" />
            </Array>
          </mxGeometry>
        </mxCell>
        <mxCell id="NhHnIEGPWBSdgA2dh0-2-8" value="" style="ellipse;whiteSpace=wrap;html=1;aspect=fixed;fillColor=none;" parent="1" vertex="1">
          <mxGeometry x="795" y="535" width="80" height="80" as="geometry" />
        </mxCell>
        <mxCell id="NhHnIEGPWBSdgA2dh0-2-9" value="Данные записываются в SQLite" style="text;html=1;align=center;verticalAlign=middle;rounded=0;fillColor=none;strokeWidth=2;strokeColor=none;fontSize=10;whiteSpace=wrap;" parent="1" vertex="1">
          <mxGeometry x="808.5999999999999" y="570" width="52.81" height="20" as="geometry" />
        </mxCell>
        <mxCell id="NhHnIEGPWBSdgA2dh0-2-10" value="" style="whiteSpace=wrap;html=1;aspect=fixed;fillColor=#000000;" parent="1" vertex="1">
          <mxGeometry x="830" y="545" width="10" height="10" as="geometry" />
        </mxCell>
        <mxCell id="NhHnIEGPWBSdgA2dh0-2-12" value="" style="endArrow=classic;html=1;rounded=0;exitX=0.5;exitY=1;exitDx=0;exitDy=0;" parent="1" source="NhHnIEGPWBSdgA2dh0-2-4" edge="1">
          <mxGeometry width="50" height="50" relative="1" as="geometry">
            <mxPoint x="751.25" y="620" as="sourcePoint" />
            <mxPoint x="831.25" y="510" as="targetPoint" />
          </mxGeometry>
        </mxCell>
        <mxCell id="8_V0k7mfxFpGvZP9v4ZQ-71" value="" style="ellipse;whiteSpace=wrap;html=1;aspect=fixed;fillColor=none;" vertex="1" parent="1">
          <mxGeometry x="-290" y="610" width="80" height="80" as="geometry" />
        </mxCell>
        <mxCell id="8_V0k7mfxFpGvZP9v4ZQ-72" value="Нажата кнопка &quot;Закрыть&quot;" style="text;html=1;align=center;verticalAlign=middle;rounded=0;fillColor=none;strokeWidth=2;strokeColor=none;fontSize=10;whiteSpace=wrap;" vertex="1" parent="1">
          <mxGeometry x="-281.25" y="625" width="62.5" height="50" as="geometry" />
        </mxCell>
        <mxCell id="8_V0k7mfxFpGvZP9v4ZQ-73" value="" style="ellipse;whiteSpace=wrap;html=1;aspect=fixed;fillColor=none;" vertex="1" parent="1">
          <mxGeometry x="-191.88" y="610" width="80" height="80" as="geometry" />
        </mxCell>
        <mxCell id="8_V0k7mfxFpGvZP9v4ZQ-74" value="Нажата кнопка &quot;Свернуть&quot;" style="text;html=1;align=center;verticalAlign=middle;rounded=0;fillColor=none;strokeWidth=2;strokeColor=none;fontSize=10;whiteSpace=wrap;" vertex="1" parent="1">
          <mxGeometry x="-183.13" y="625" width="62.5" height="50" as="geometry" />
        </mxCell>
        <mxCell id="8_V0k7mfxFpGvZP9v4ZQ-75" value="" style="ellipse;whiteSpace=wrap;html=1;aspect=fixed;fillColor=none;" vertex="1" parent="1">
          <mxGeometry x="-91.88" y="610" width="80" height="80" as="geometry" />
        </mxCell>
        <mxCell id="8_V0k7mfxFpGvZP9v4ZQ-76" value="Нажата кнопка &quot;Развернуть&quot;" style="text;html=1;align=center;verticalAlign=middle;rounded=0;fillColor=none;strokeWidth=2;strokeColor=none;fontSize=10;whiteSpace=wrap;" vertex="1" parent="1">
          <mxGeometry x="-83.13" y="625" width="62.5" height="50" as="geometry" />
        </mxCell>
        <mxCell id="8_V0k7mfxFpGvZP9v4ZQ-106" style="edgeStyle=orthogonalEdgeStyle;rounded=0;orthogonalLoop=1;jettySize=auto;html=1;entryX=0;entryY=1;entryDx=0;entryDy=0;exitX=0.5;exitY=1;exitDx=0;exitDy=0;" edge="1" parent="1" source="8_V0k7mfxFpGvZP9v4ZQ-77" target="jVnBFIT5BV6Da5XGVnSo-33">
          <mxGeometry relative="1" as="geometry">
            <Array as="points">
              <mxPoint x="-250" y="820" />
              <mxPoint x="120" y="820" />
              <mxPoint x="120" y="300" />
              <mxPoint x="409" y="300" />
            </Array>
          </mxGeometry>
        </mxCell>
        <mxCell id="8_V0k7mfxFpGvZP9v4ZQ-77" value="" style="ellipse;whiteSpace=wrap;html=1;aspect=fixed;fillColor=none;" vertex="1" parent="1">
          <mxGeometry x="-290" y="720" width="80" height="80" as="geometry" />
        </mxCell>
        <mxCell id="8_V0k7mfxFpGvZP9v4ZQ-78" value="Форма закрывется" style="text;html=1;align=center;verticalAlign=middle;rounded=0;fillColor=none;strokeWidth=2;strokeColor=none;fontSize=10;whiteSpace=wrap;" vertex="1" parent="1">
          <mxGeometry x="-281.25" y="735" width="62.5" height="50" as="geometry" />
        </mxCell>
        <mxCell id="8_V0k7mfxFpGvZP9v4ZQ-112" style="edgeStyle=orthogonalEdgeStyle;rounded=0;orthogonalLoop=1;jettySize=auto;html=1;exitX=0.5;exitY=1;exitDx=0;exitDy=0;entryX=0.5;entryY=1;entryDx=0;entryDy=0;" edge="1" parent="1" source="8_V0k7mfxFpGvZP9v4ZQ-79" target="jVnBFIT5BV6Da5XGVnSo-42">
          <mxGeometry relative="1" as="geometry" />
        </mxCell>
        <mxCell id="8_V0k7mfxFpGvZP9v4ZQ-79" value="" style="ellipse;whiteSpace=wrap;html=1;aspect=fixed;fillColor=none;" vertex="1" parent="1">
          <mxGeometry x="-191.88" y="720" width="80" height="80" as="geometry" />
        </mxCell>
        <mxCell id="8_V0k7mfxFpGvZP9v4ZQ-80" value="Форма сворачивается" style="text;html=1;align=center;verticalAlign=middle;rounded=0;fillColor=none;strokeWidth=2;strokeColor=none;fontSize=10;whiteSpace=wrap;" vertex="1" parent="1">
          <mxGeometry x="-183.13" y="735" width="62.5" height="50" as="geometry" />
        </mxCell>
        <mxCell id="8_V0k7mfxFpGvZP9v4ZQ-108" style="edgeStyle=orthogonalEdgeStyle;rounded=0;orthogonalLoop=1;jettySize=auto;html=1;exitX=0.5;exitY=1;exitDx=0;exitDy=0;entryX=0.5;entryY=1;entryDx=0;entryDy=0;" edge="1" parent="1" source="8_V0k7mfxFpGvZP9v4ZQ-81" target="jVnBFIT5BV6Da5XGVnSo-42">
          <mxGeometry relative="1" as="geometry" />
        </mxCell>
        <mxCell id="8_V0k7mfxFpGvZP9v4ZQ-81" value="" style="ellipse;whiteSpace=wrap;html=1;aspect=fixed;fillColor=none;" vertex="1" parent="1">
          <mxGeometry x="-91.88" y="720" width="80" height="80" as="geometry" />
        </mxCell>
        <mxCell id="8_V0k7mfxFpGvZP9v4ZQ-82" value="Форма растягивается во весь экран" style="text;html=1;align=center;verticalAlign=middle;rounded=0;fillColor=none;strokeWidth=2;strokeColor=none;fontSize=10;whiteSpace=wrap;" vertex="1" parent="1">
          <mxGeometry x="-83.13" y="735" width="62.5" height="50" as="geometry" />
        </mxCell>
        <mxCell id="8_V0k7mfxFpGvZP9v4ZQ-83" value="" style="endArrow=none;html=1;rounded=0;strokeWidth=2;" edge="1" parent="1">
          <mxGeometry width="50" height="50" relative="1" as="geometry">
            <mxPoint x="-290" y="710" as="sourcePoint" />
            <mxPoint x="-215" y="710" as="targetPoint" />
          </mxGeometry>
        </mxCell>
        <mxCell id="8_V0k7mfxFpGvZP9v4ZQ-84" value="" style="endArrow=none;html=1;rounded=0;strokeWidth=2;" edge="1" parent="1">
          <mxGeometry width="50" height="50" relative="1" as="geometry">
            <mxPoint x="-191.88" y="710" as="sourcePoint" />
            <mxPoint x="-116.88" y="710" as="targetPoint" />
          </mxGeometry>
        </mxCell>
        <mxCell id="8_V0k7mfxFpGvZP9v4ZQ-85" value="" style="endArrow=none;html=1;rounded=0;strokeWidth=2;" edge="1" parent="1">
          <mxGeometry width="50" height="50" relative="1" as="geometry">
            <mxPoint x="-89.38" y="710" as="sourcePoint" />
            <mxPoint x="-14.379999999999995" y="710" as="targetPoint" />
          </mxGeometry>
        </mxCell>
        <mxCell id="8_V0k7mfxFpGvZP9v4ZQ-86" value="" style="endArrow=classic;html=1;rounded=0;exitX=0.5;exitY=1;exitDx=0;exitDy=0;" edge="1" parent="1" source="8_V0k7mfxFpGvZP9v4ZQ-71">
          <mxGeometry width="50" height="50" relative="1" as="geometry">
            <mxPoint x="-431.88" y="660" as="sourcePoint" />
            <mxPoint x="-249.88" y="710" as="targetPoint" />
          </mxGeometry>
        </mxCell>
        <mxCell id="8_V0k7mfxFpGvZP9v4ZQ-87" value="" style="endArrow=classic;html=1;rounded=0;exitX=0.5;exitY=1;exitDx=0;exitDy=0;" edge="1" parent="1" source="8_V0k7mfxFpGvZP9v4ZQ-73">
          <mxGeometry width="50" height="50" relative="1" as="geometry">
            <mxPoint x="-423.76" y="660" as="sourcePoint" />
            <mxPoint x="-151.76" y="710" as="targetPoint" />
          </mxGeometry>
        </mxCell>
        <mxCell id="8_V0k7mfxFpGvZP9v4ZQ-88" value="" style="endArrow=classic;html=1;rounded=0;exitX=0.5;exitY=1;exitDx=0;exitDy=0;" edge="1" parent="1" source="8_V0k7mfxFpGvZP9v4ZQ-75">
          <mxGeometry width="50" height="50" relative="1" as="geometry">
            <mxPoint x="-411.88" y="660" as="sourcePoint" />
            <mxPoint x="-51.879999999999995" y="710" as="targetPoint" />
          </mxGeometry>
        </mxCell>
        <mxCell id="8_V0k7mfxFpGvZP9v4ZQ-89" value="" style="whiteSpace=wrap;html=1;aspect=fixed;fillColor=#000000;" vertex="1" parent="1">
          <mxGeometry x="-255.62" y="735" width="10" height="10" as="geometry" />
        </mxCell>
        <mxCell id="8_V0k7mfxFpGvZP9v4ZQ-90" value="" style="whiteSpace=wrap;html=1;aspect=fixed;fillColor=#000000;" vertex="1" parent="1">
          <mxGeometry x="-156.88" y="730" width="10" height="10" as="geometry" />
        </mxCell>
        <mxCell id="8_V0k7mfxFpGvZP9v4ZQ-91" value="" style="whiteSpace=wrap;html=1;aspect=fixed;fillColor=#000000;" vertex="1" parent="1">
          <mxGeometry x="-56.879999999999995" y="730" width="10" height="10" as="geometry" />
        </mxCell>
        <mxCell id="8_V0k7mfxFpGvZP9v4ZQ-92" value="" style="endArrow=classic;html=1;rounded=0;entryX=0.476;entryY=-0.007;entryDx=0;entryDy=0;entryPerimeter=0;" edge="1" parent="1" target="8_V0k7mfxFpGvZP9v4ZQ-77">
          <mxGeometry width="50" height="50" relative="1" as="geometry">
            <mxPoint x="-251.88" y="710" as="sourcePoint" />
            <mxPoint x="-261.88" y="680" as="targetPoint" />
          </mxGeometry>
        </mxCell>
        <mxCell id="8_V0k7mfxFpGvZP9v4ZQ-93" value="" style="endArrow=classic;html=1;rounded=0;entryX=0.476;entryY=-0.007;entryDx=0;entryDy=0;entryPerimeter=0;" edge="1" parent="1">
          <mxGeometry width="50" height="50" relative="1" as="geometry">
            <mxPoint x="-151.96000000000004" y="710" as="sourcePoint" />
            <mxPoint x="-151.96000000000004" y="719" as="targetPoint" />
          </mxGeometry>
        </mxCell>
        <mxCell id="8_V0k7mfxFpGvZP9v4ZQ-94" value="" style="endArrow=classic;html=1;rounded=0;entryX=0.476;entryY=-0.007;entryDx=0;entryDy=0;entryPerimeter=0;" edge="1" parent="1">
          <mxGeometry width="50" height="50" relative="1" as="geometry">
            <mxPoint x="-51.960000000000036" y="711" as="sourcePoint" />
            <mxPoint x="-51.960000000000036" y="720" as="targetPoint" />
          </mxGeometry>
        </mxCell>
        <mxCell id="8_V0k7mfxFpGvZP9v4ZQ-95" value="" style="endArrow=none;html=1;rounded=0;strokeWidth=2;" edge="1" parent="1">
          <mxGeometry width="50" height="50" relative="1" as="geometry">
            <mxPoint x="505.31" y="730" as="sourcePoint" />
            <mxPoint x="580.31" y="730" as="targetPoint" />
          </mxGeometry>
        </mxCell>
        <mxCell id="8_V0k7mfxFpGvZP9v4ZQ-96" value="" style="endArrow=classic;html=1;rounded=0;entryX=0.453;entryY=0.007;entryDx=0;entryDy=0;entryPerimeter=0;" edge="1" parent="1">
          <mxGeometry width="50" height="50" relative="1" as="geometry">
            <mxPoint x="545.22" y="730" as="sourcePoint" />
            <mxPoint x="545.3" y="760.5600000000002" as="targetPoint" />
          </mxGeometry>
        </mxCell>
        <mxCell id="8_V0k7mfxFpGvZP9v4ZQ-97" value="" style="ellipse;whiteSpace=wrap;html=1;aspect=fixed;fillColor=none;" vertex="1" parent="1">
          <mxGeometry x="442.67" y="610" width="80" height="80" as="geometry" />
        </mxCell>
        <mxCell id="8_V0k7mfxFpGvZP9v4ZQ-98" value="&lt;font size=&quot;1&quot;&gt;Был загружен печатный файл&lt;br&gt;&lt;/font&gt;" style="text;html=1;align=center;verticalAlign=middle;rounded=0;fillColor=none;strokeWidth=2;strokeColor=none;fontSize=10;whiteSpace=wrap;" vertex="1" parent="1">
          <mxGeometry x="452.36000000000007" y="640" width="60.62" height="20" as="geometry" />
        </mxCell>
        <mxCell id="8_V0k7mfxFpGvZP9v4ZQ-99" value="" style="endArrow=classic;html=1;rounded=0;exitX=0.5;exitY=1;exitDx=0;exitDy=0;" edge="1" parent="1" source="8_V0k7mfxFpGvZP9v4ZQ-97">
          <mxGeometry width="50" height="50" relative="1" as="geometry">
            <mxPoint x="462.81" y="640" as="sourcePoint" />
            <mxPoint x="542.81" y="730" as="targetPoint" />
          </mxGeometry>
        </mxCell>
        <mxCell id="8_V0k7mfxFpGvZP9v4ZQ-100" value="" style="ellipse;whiteSpace=wrap;html=1;aspect=fixed;fillColor=none;" vertex="1" parent="1">
          <mxGeometry x="554.0600000000001" y="605" width="90" height="90" as="geometry" />
        </mxCell>
        <mxCell id="8_V0k7mfxFpGvZP9v4ZQ-101" value="Нажата кнопка &quot;Сохранить в Excel&quot;&lt;font size=&quot;1&quot;&gt;&lt;br&gt;&lt;/font&gt;" style="text;html=1;align=center;verticalAlign=middle;rounded=0;fillColor=none;strokeWidth=2;strokeColor=none;fontSize=10;whiteSpace=wrap;" vertex="1" parent="1">
          <mxGeometry x="568.9000000000001" y="635" width="60.31" height="20" as="geometry" />
        </mxCell>
        <mxCell id="8_V0k7mfxFpGvZP9v4ZQ-102" value="" style="endArrow=classic;html=1;rounded=0;exitX=0.5;exitY=1;exitDx=0;exitDy=0;" edge="1" parent="1" source="8_V0k7mfxFpGvZP9v4ZQ-100">
          <mxGeometry width="50" height="50" relative="1" as="geometry">
            <mxPoint x="642.81" y="590" as="sourcePoint" />
            <mxPoint x="542.81" y="730" as="targetPoint" />
          </mxGeometry>
        </mxCell>
        <mxCell id="8_V0k7mfxFpGvZP9v4ZQ-119" style="edgeStyle=orthogonalEdgeStyle;rounded=0;orthogonalLoop=1;jettySize=auto;html=1;exitX=0.5;exitY=1;exitDx=0;exitDy=0;curved=1;entryX=0.769;entryY=0.96;entryDx=0;entryDy=0;entryPerimeter=0;" edge="1" parent="1" source="8_V0k7mfxFpGvZP9v4ZQ-103" target="jVnBFIT5BV6Da5XGVnSo-33">
          <mxGeometry relative="1" as="geometry">
            <mxPoint x="440" y="230" as="targetPoint" />
            <Array as="points">
              <mxPoint x="549" y="850" />
              <mxPoint x="660" y="850" />
              <mxPoint x="660" y="450" />
              <mxPoint x="500" y="450" />
              <mxPoint x="500" y="230" />
              <mxPoint x="459" y="230" />
            </Array>
          </mxGeometry>
        </mxCell>
        <mxCell id="8_V0k7mfxFpGvZP9v4ZQ-103" value="" style="ellipse;whiteSpace=wrap;html=1;aspect=fixed;fillColor=none;" vertex="1" parent="1">
          <mxGeometry x="509.06" y="760" width="80" height="80" as="geometry" />
        </mxCell>
        <mxCell id="8_V0k7mfxFpGvZP9v4ZQ-104" value="&lt;font size=&quot;1&quot;&gt;Данные сохраняются в новый Excel файл&lt;br&gt;&lt;/font&gt;" style="text;html=1;align=center;verticalAlign=middle;rounded=0;fillColor=none;strokeWidth=2;strokeColor=none;fontSize=10;whiteSpace=wrap;" vertex="1" parent="1">
          <mxGeometry x="522.67" y="800" width="52.81" height="20" as="geometry" />
        </mxCell>
        <mxCell id="8_V0k7mfxFpGvZP9v4ZQ-105" value="" style="whiteSpace=wrap;html=1;aspect=fixed;fillColor=#000000;" vertex="1" parent="1">
          <mxGeometry x="544.06" y="770" width="10" height="10" as="geometry" />
        </mxCell>
        <mxCell id="8_V0k7mfxFpGvZP9v4ZQ-116" style="edgeStyle=orthogonalEdgeStyle;rounded=0;orthogonalLoop=1;jettySize=auto;html=1;exitX=0.5;exitY=1;exitDx=0;exitDy=0;entryX=0.333;entryY=1.041;entryDx=0;entryDy=0;entryPerimeter=0;curved=1;" edge="1" parent="1" source="cVFr7yRleSdVNO2gR8RI-21" target="jVnBFIT5BV6Da5XGVnSo-33">
          <mxGeometry relative="1" as="geometry">
            <Array as="points">
              <mxPoint x="311" y="830" />
              <mxPoint x="190" y="830" />
              <mxPoint x="190" y="380" />
              <mxPoint x="424" y="380" />
            </Array>
          </mxGeometry>
        </mxCell>
        <mxCell id="8_V0k7mfxFpGvZP9v4ZQ-120" value="" style="ellipse;whiteSpace=wrap;html=1;aspect=fixed;fillColor=none;" vertex="1" parent="1">
          <mxGeometry x="641.88" y="-105" width="80" height="80" as="geometry" />
        </mxCell>
        <mxCell id="8_V0k7mfxFpGvZP9v4ZQ-121" value="Нажата кнопка &quot;Закрыть&quot;" style="text;html=1;align=center;verticalAlign=middle;rounded=0;fillColor=none;strokeWidth=2;strokeColor=none;fontSize=10;whiteSpace=wrap;" vertex="1" parent="1">
          <mxGeometry x="650.63" y="-90" width="62.5" height="50" as="geometry" />
        </mxCell>
        <mxCell id="8_V0k7mfxFpGvZP9v4ZQ-122" value="" style="ellipse;whiteSpace=wrap;html=1;aspect=fixed;fillColor=none;" vertex="1" parent="1">
          <mxGeometry x="740" y="-105" width="80" height="80" as="geometry" />
        </mxCell>
        <mxCell id="8_V0k7mfxFpGvZP9v4ZQ-123" value="Нажата кнопка &quot;Свернуть&quot;" style="text;html=1;align=center;verticalAlign=middle;rounded=0;fillColor=none;strokeWidth=2;strokeColor=none;fontSize=10;whiteSpace=wrap;" vertex="1" parent="1">
          <mxGeometry x="748.75" y="-90" width="62.5" height="50" as="geometry" />
        </mxCell>
        <mxCell id="8_V0k7mfxFpGvZP9v4ZQ-124" value="" style="ellipse;whiteSpace=wrap;html=1;aspect=fixed;fillColor=none;" vertex="1" parent="1">
          <mxGeometry x="840" y="-105" width="80" height="80" as="geometry" />
        </mxCell>
        <mxCell id="8_V0k7mfxFpGvZP9v4ZQ-125" value="Нажата кнопка &quot;Развернуть&quot;" style="text;html=1;align=center;verticalAlign=middle;rounded=0;fillColor=none;strokeWidth=2;strokeColor=none;fontSize=10;whiteSpace=wrap;" vertex="1" parent="1">
          <mxGeometry x="848.75" y="-90" width="62.5" height="50" as="geometry" />
        </mxCell>
        <mxCell id="8_V0k7mfxFpGvZP9v4ZQ-147" style="edgeStyle=orthogonalEdgeStyle;rounded=0;orthogonalLoop=1;jettySize=auto;html=1;exitX=0.5;exitY=1;exitDx=0;exitDy=0;entryX=1;entryY=0.5;entryDx=0;entryDy=0;" edge="1" parent="1" source="8_V0k7mfxFpGvZP9v4ZQ-126" target="jVnBFIT5BV6Da5XGVnSo-33">
          <mxGeometry relative="1" as="geometry" />
        </mxCell>
        <mxCell id="8_V0k7mfxFpGvZP9v4ZQ-126" value="" style="ellipse;whiteSpace=wrap;html=1;aspect=fixed;fillColor=none;" vertex="1" parent="1">
          <mxGeometry x="641.88" y="5" width="80" height="80" as="geometry" />
        </mxCell>
        <mxCell id="8_V0k7mfxFpGvZP9v4ZQ-127" value="Форма закрывется" style="text;html=1;align=center;verticalAlign=middle;rounded=0;fillColor=none;strokeWidth=2;strokeColor=none;fontSize=10;whiteSpace=wrap;" vertex="1" parent="1">
          <mxGeometry x="650.63" y="20" width="62.5" height="50" as="geometry" />
        </mxCell>
        <mxCell id="8_V0k7mfxFpGvZP9v4ZQ-149" style="edgeStyle=orthogonalEdgeStyle;rounded=0;orthogonalLoop=1;jettySize=auto;html=1;exitX=0.5;exitY=1;exitDx=0;exitDy=0;entryX=1;entryY=0.5;entryDx=0;entryDy=0;" edge="1" parent="1" source="8_V0k7mfxFpGvZP9v4ZQ-128" target="jVnBFIT5BV6Da5XGVnSo-33">
          <mxGeometry relative="1" as="geometry" />
        </mxCell>
        <mxCell id="8_V0k7mfxFpGvZP9v4ZQ-128" value="" style="ellipse;whiteSpace=wrap;html=1;aspect=fixed;fillColor=none;" vertex="1" parent="1">
          <mxGeometry x="740" y="5" width="80" height="80" as="geometry" />
        </mxCell>
        <mxCell id="8_V0k7mfxFpGvZP9v4ZQ-129" value="Форма сворачивается" style="text;html=1;align=center;verticalAlign=middle;rounded=0;fillColor=none;strokeWidth=2;strokeColor=none;fontSize=10;whiteSpace=wrap;" vertex="1" parent="1">
          <mxGeometry x="748.75" y="20" width="62.5" height="50" as="geometry" />
        </mxCell>
        <mxCell id="8_V0k7mfxFpGvZP9v4ZQ-150" style="edgeStyle=orthogonalEdgeStyle;rounded=0;orthogonalLoop=1;jettySize=auto;html=1;exitX=0.5;exitY=1;exitDx=0;exitDy=0;entryX=1;entryY=0.5;entryDx=0;entryDy=0;" edge="1" parent="1" source="8_V0k7mfxFpGvZP9v4ZQ-130" target="jVnBFIT5BV6Da5XGVnSo-33">
          <mxGeometry relative="1" as="geometry">
            <mxPoint x="870" y="250" as="targetPoint" />
          </mxGeometry>
        </mxCell>
        <mxCell id="8_V0k7mfxFpGvZP9v4ZQ-130" value="" style="ellipse;whiteSpace=wrap;html=1;aspect=fixed;fillColor=none;" vertex="1" parent="1">
          <mxGeometry x="840" y="5" width="80" height="80" as="geometry" />
        </mxCell>
        <mxCell id="8_V0k7mfxFpGvZP9v4ZQ-131" value="Форма растягивается во весь экран" style="text;html=1;align=center;verticalAlign=middle;rounded=0;fillColor=none;strokeWidth=2;strokeColor=none;fontSize=10;whiteSpace=wrap;" vertex="1" parent="1">
          <mxGeometry x="848.75" y="20" width="62.5" height="50" as="geometry" />
        </mxCell>
        <mxCell id="8_V0k7mfxFpGvZP9v4ZQ-132" value="" style="endArrow=none;html=1;rounded=0;strokeWidth=2;" edge="1" parent="1">
          <mxGeometry width="50" height="50" relative="1" as="geometry">
            <mxPoint x="641.88" y="-5" as="sourcePoint" />
            <mxPoint x="716.88" y="-5" as="targetPoint" />
          </mxGeometry>
        </mxCell>
        <mxCell id="8_V0k7mfxFpGvZP9v4ZQ-133" value="" style="endArrow=none;html=1;rounded=0;strokeWidth=2;" edge="1" parent="1">
          <mxGeometry width="50" height="50" relative="1" as="geometry">
            <mxPoint x="740" y="-5" as="sourcePoint" />
            <mxPoint x="815" y="-5" as="targetPoint" />
          </mxGeometry>
        </mxCell>
        <mxCell id="8_V0k7mfxFpGvZP9v4ZQ-134" value="" style="endArrow=none;html=1;rounded=0;strokeWidth=2;" edge="1" parent="1">
          <mxGeometry width="50" height="50" relative="1" as="geometry">
            <mxPoint x="842.5" y="-5" as="sourcePoint" />
            <mxPoint x="917.5" y="-5" as="targetPoint" />
          </mxGeometry>
        </mxCell>
        <mxCell id="8_V0k7mfxFpGvZP9v4ZQ-135" value="" style="endArrow=classic;html=1;rounded=0;exitX=0.5;exitY=1;exitDx=0;exitDy=0;" edge="1" parent="1" source="8_V0k7mfxFpGvZP9v4ZQ-120">
          <mxGeometry width="50" height="50" relative="1" as="geometry">
            <mxPoint x="500" y="-55" as="sourcePoint" />
            <mxPoint x="682" y="-5" as="targetPoint" />
          </mxGeometry>
        </mxCell>
        <mxCell id="8_V0k7mfxFpGvZP9v4ZQ-136" value="" style="endArrow=classic;html=1;rounded=0;exitX=0.5;exitY=1;exitDx=0;exitDy=0;" edge="1" parent="1" source="8_V0k7mfxFpGvZP9v4ZQ-122">
          <mxGeometry width="50" height="50" relative="1" as="geometry">
            <mxPoint x="508.12" y="-55" as="sourcePoint" />
            <mxPoint x="780.12" y="-5" as="targetPoint" />
          </mxGeometry>
        </mxCell>
        <mxCell id="8_V0k7mfxFpGvZP9v4ZQ-137" value="" style="endArrow=classic;html=1;rounded=0;exitX=0.5;exitY=1;exitDx=0;exitDy=0;" edge="1" parent="1" source="8_V0k7mfxFpGvZP9v4ZQ-124">
          <mxGeometry width="50" height="50" relative="1" as="geometry">
            <mxPoint x="520" y="-55" as="sourcePoint" />
            <mxPoint x="880" y="-5" as="targetPoint" />
          </mxGeometry>
        </mxCell>
        <mxCell id="8_V0k7mfxFpGvZP9v4ZQ-138" value="" style="whiteSpace=wrap;html=1;aspect=fixed;fillColor=#000000;" vertex="1" parent="1">
          <mxGeometry x="676.26" y="20" width="10" height="10" as="geometry" />
        </mxCell>
        <mxCell id="8_V0k7mfxFpGvZP9v4ZQ-139" value="" style="whiteSpace=wrap;html=1;aspect=fixed;fillColor=#000000;" vertex="1" parent="1">
          <mxGeometry x="775" y="15" width="10" height="10" as="geometry" />
        </mxCell>
        <mxCell id="8_V0k7mfxFpGvZP9v4ZQ-140" value="" style="whiteSpace=wrap;html=1;aspect=fixed;fillColor=#000000;" vertex="1" parent="1">
          <mxGeometry x="875" y="15" width="10" height="10" as="geometry" />
        </mxCell>
        <mxCell id="8_V0k7mfxFpGvZP9v4ZQ-141" value="" style="endArrow=classic;html=1;rounded=0;entryX=0.476;entryY=-0.007;entryDx=0;entryDy=0;entryPerimeter=0;" edge="1" parent="1" target="8_V0k7mfxFpGvZP9v4ZQ-126">
          <mxGeometry width="50" height="50" relative="1" as="geometry">
            <mxPoint x="680" y="-5" as="sourcePoint" />
            <mxPoint x="670" y="-35" as="targetPoint" />
          </mxGeometry>
        </mxCell>
        <mxCell id="8_V0k7mfxFpGvZP9v4ZQ-142" value="" style="endArrow=classic;html=1;rounded=0;entryX=0.476;entryY=-0.007;entryDx=0;entryDy=0;entryPerimeter=0;" edge="1" parent="1">
          <mxGeometry width="50" height="50" relative="1" as="geometry">
            <mxPoint x="779.92" y="-5" as="sourcePoint" />
            <mxPoint x="779.92" y="4" as="targetPoint" />
          </mxGeometry>
        </mxCell>
        <mxCell id="8_V0k7mfxFpGvZP9v4ZQ-143" value="" style="endArrow=classic;html=1;rounded=0;entryX=0.476;entryY=-0.007;entryDx=0;entryDy=0;entryPerimeter=0;" edge="1" parent="1">
          <mxGeometry width="50" height="50" relative="1" as="geometry">
            <mxPoint x="879.92" y="-4" as="sourcePoint" />
            <mxPoint x="879.92" y="5" as="targetPoint" />
          </mxGeometry>
        </mxCell>
        <mxCell id="8_V0k7mfxFpGvZP9v4ZQ-151" style="edgeStyle=orthogonalEdgeStyle;rounded=0;orthogonalLoop=1;jettySize=auto;html=1;exitX=0;exitY=0.5;exitDx=0;exitDy=0;entryX=0.5;entryY=0;entryDx=0;entryDy=0;" edge="1" parent="1" source="8_V0k7mfxFpGvZP9v4ZQ-154" target="8_V0k7mfxFpGvZP9v4ZQ-166">
          <mxGeometry relative="1" as="geometry" />
        </mxCell>
        <mxCell id="8_V0k7mfxFpGvZP9v4ZQ-152" style="edgeStyle=orthogonalEdgeStyle;rounded=0;orthogonalLoop=1;jettySize=auto;html=1;exitX=0;exitY=0.5;exitDx=0;exitDy=0;entryX=0.5;entryY=0;entryDx=0;entryDy=0;" edge="1" parent="1" source="8_V0k7mfxFpGvZP9v4ZQ-154" target="8_V0k7mfxFpGvZP9v4ZQ-164">
          <mxGeometry relative="1" as="geometry" />
        </mxCell>
        <mxCell id="8_V0k7mfxFpGvZP9v4ZQ-153" style="edgeStyle=orthogonalEdgeStyle;rounded=0;orthogonalLoop=1;jettySize=auto;html=1;exitX=0;exitY=0.5;exitDx=0;exitDy=0;entryX=0.5;entryY=0;entryDx=0;entryDy=0;" edge="1" parent="1" source="8_V0k7mfxFpGvZP9v4ZQ-154" target="8_V0k7mfxFpGvZP9v4ZQ-162">
          <mxGeometry relative="1" as="geometry" />
        </mxCell>
        <mxCell id="8_V0k7mfxFpGvZP9v4ZQ-154" value="" style="ellipse;whiteSpace=wrap;html=1;aspect=fixed;fillColor=none;" vertex="1" parent="1">
          <mxGeometry x="134.55000000000007" y="-252.5" width="80" height="80" as="geometry" />
        </mxCell>
        <mxCell id="8_V0k7mfxFpGvZP9v4ZQ-155" value="&lt;font size=&quot;1&quot;&gt;Окно диаграммы&lt;/font&gt;" style="text;html=1;align=center;verticalAlign=middle;rounded=0;fillColor=none;strokeWidth=2;strokeColor=none;fontSize=10;whiteSpace=wrap;" vertex="1" parent="1">
          <mxGeometry x="144.24000000000012" y="-212.5" width="60.62" height="20" as="geometry" />
        </mxCell>
        <mxCell id="8_V0k7mfxFpGvZP9v4ZQ-156" style="edgeStyle=orthogonalEdgeStyle;rounded=0;orthogonalLoop=1;jettySize=auto;html=1;exitX=0.5;exitY=1;exitDx=0;exitDy=0;" edge="1" parent="1" source="8_V0k7mfxFpGvZP9v4ZQ-157">
          <mxGeometry relative="1" as="geometry">
            <mxPoint x="174.85434782608706" y="-272.5" as="targetPoint" />
          </mxGeometry>
        </mxCell>
        <mxCell id="8_V0k7mfxFpGvZP9v4ZQ-157" value="" style="ellipse;whiteSpace=wrap;html=1;aspect=fixed;fillColor=none;" vertex="1" parent="1">
          <mxGeometry x="48.300000000000054" y="-427.5" width="80" height="80" as="geometry" />
        </mxCell>
        <mxCell id="8_V0k7mfxFpGvZP9v4ZQ-158" value="&lt;font size=&quot;1&quot;&gt;Нажата кнопка &quot;Показать диаграмму&quot;&lt;br&gt;&lt;/font&gt;" style="text;html=1;align=center;verticalAlign=middle;rounded=0;fillColor=none;strokeWidth=2;strokeColor=none;fontSize=10;whiteSpace=wrap;" vertex="1" parent="1">
          <mxGeometry x="57.99000000000011" y="-397.5" width="60.62" height="20" as="geometry" />
        </mxCell>
        <mxCell id="8_V0k7mfxFpGvZP9v4ZQ-159" value="" style="endArrow=none;html=1;rounded=0;strokeWidth=2;" edge="1" parent="1">
          <mxGeometry width="50" height="50" relative="1" as="geometry">
            <mxPoint x="137.05000000000007" y="-272.5" as="sourcePoint" />
            <mxPoint x="212.05000000000007" y="-272.5" as="targetPoint" />
          </mxGeometry>
        </mxCell>
        <mxCell id="8_V0k7mfxFpGvZP9v4ZQ-160" value="" style="endArrow=classic;html=1;rounded=0;entryX=0.5;entryY=0;entryDx=0;entryDy=0;" edge="1" parent="1" target="8_V0k7mfxFpGvZP9v4ZQ-154">
          <mxGeometry width="50" height="50" relative="1" as="geometry">
            <mxPoint x="174.55000000000007" y="-272.5" as="sourcePoint" />
            <mxPoint x="184.55000000000007" y="-292.5" as="targetPoint" />
          </mxGeometry>
        </mxCell>
        <mxCell id="8_V0k7mfxFpGvZP9v4ZQ-161" value="" style="ellipse;whiteSpace=wrap;html=1;aspect=fixed;fillColor=#000000;" vertex="1" parent="1">
          <mxGeometry x="169.55000000000007" y="-232.5" width="10" height="10" as="geometry" />
        </mxCell>
        <mxCell id="8_V0k7mfxFpGvZP9v4ZQ-162" value="" style="ellipse;whiteSpace=wrap;html=1;aspect=fixed;fillColor=none;" vertex="1" parent="1">
          <mxGeometry x="-171.69999999999993" y="-112.5" width="80" height="80" as="geometry" />
        </mxCell>
        <mxCell id="8_V0k7mfxFpGvZP9v4ZQ-163" value="Нажата кнопка &quot;Закрыть&quot;" style="text;html=1;align=center;verticalAlign=middle;rounded=0;fillColor=none;strokeWidth=2;strokeColor=none;fontSize=10;whiteSpace=wrap;" vertex="1" parent="1">
          <mxGeometry x="-162.94999999999993" y="-97.5" width="62.5" height="50" as="geometry" />
        </mxCell>
        <mxCell id="8_V0k7mfxFpGvZP9v4ZQ-164" value="" style="ellipse;whiteSpace=wrap;html=1;aspect=fixed;fillColor=none;" vertex="1" parent="1">
          <mxGeometry x="-73.58000000000006" y="-112.5" width="80" height="80" as="geometry" />
        </mxCell>
        <mxCell id="8_V0k7mfxFpGvZP9v4ZQ-165" value="Нажата кнопка &quot;Свернуть&quot;" style="text;html=1;align=center;verticalAlign=middle;rounded=0;fillColor=none;strokeWidth=2;strokeColor=none;fontSize=10;whiteSpace=wrap;" vertex="1" parent="1">
          <mxGeometry x="-64.83000000000006" y="-97.5" width="62.5" height="50" as="geometry" />
        </mxCell>
        <mxCell id="8_V0k7mfxFpGvZP9v4ZQ-166" value="" style="ellipse;whiteSpace=wrap;html=1;aspect=fixed;fillColor=none;" vertex="1" parent="1">
          <mxGeometry x="26.419999999999945" y="-112.5" width="80" height="80" as="geometry" />
        </mxCell>
        <mxCell id="8_V0k7mfxFpGvZP9v4ZQ-167" value="Нажата кнопка &quot;Развернуть&quot;" style="text;html=1;align=center;verticalAlign=middle;rounded=0;fillColor=none;strokeWidth=2;strokeColor=none;fontSize=10;whiteSpace=wrap;" vertex="1" parent="1">
          <mxGeometry x="35.169999999999945" y="-97.5" width="62.5" height="50" as="geometry" />
        </mxCell>
        <mxCell id="8_V0k7mfxFpGvZP9v4ZQ-190" style="edgeStyle=orthogonalEdgeStyle;rounded=0;orthogonalLoop=1;jettySize=auto;html=1;exitX=0.5;exitY=1;exitDx=0;exitDy=0;entryX=0;entryY=0.5;entryDx=0;entryDy=0;" edge="1" parent="1" source="8_V0k7mfxFpGvZP9v4ZQ-168" target="jVnBFIT5BV6Da5XGVnSo-33">
          <mxGeometry relative="1" as="geometry" />
        </mxCell>
        <mxCell id="8_V0k7mfxFpGvZP9v4ZQ-168" value="" style="ellipse;whiteSpace=wrap;html=1;aspect=fixed;fillColor=none;" vertex="1" parent="1">
          <mxGeometry x="-171.69999999999993" y="-2.5" width="80" height="80" as="geometry" />
        </mxCell>
        <mxCell id="8_V0k7mfxFpGvZP9v4ZQ-169" value="Форма закрывется" style="text;html=1;align=center;verticalAlign=middle;rounded=0;fillColor=none;strokeWidth=2;strokeColor=none;fontSize=10;whiteSpace=wrap;" vertex="1" parent="1">
          <mxGeometry x="-162.94999999999993" y="12.5" width="62.5" height="50" as="geometry" />
        </mxCell>
        <mxCell id="8_V0k7mfxFpGvZP9v4ZQ-170" style="edgeStyle=orthogonalEdgeStyle;rounded=0;orthogonalLoop=1;jettySize=auto;html=1;exitX=0.5;exitY=1;exitDx=0;exitDy=0;entryX=0.5;entryY=1;entryDx=0;entryDy=0;" edge="1" parent="1" source="8_V0k7mfxFpGvZP9v4ZQ-171" target="8_V0k7mfxFpGvZP9v4ZQ-154">
          <mxGeometry relative="1" as="geometry" />
        </mxCell>
        <mxCell id="8_V0k7mfxFpGvZP9v4ZQ-171" value="" style="ellipse;whiteSpace=wrap;html=1;aspect=fixed;fillColor=none;" vertex="1" parent="1">
          <mxGeometry x="-73.58000000000006" y="-2.5" width="80" height="80" as="geometry" />
        </mxCell>
        <mxCell id="8_V0k7mfxFpGvZP9v4ZQ-172" value="Форма сворачивается" style="text;html=1;align=center;verticalAlign=middle;rounded=0;fillColor=none;strokeWidth=2;strokeColor=none;fontSize=10;whiteSpace=wrap;" vertex="1" parent="1">
          <mxGeometry x="-64.83000000000006" y="12.5" width="62.5" height="50" as="geometry" />
        </mxCell>
        <mxCell id="8_V0k7mfxFpGvZP9v4ZQ-173" style="edgeStyle=orthogonalEdgeStyle;rounded=0;orthogonalLoop=1;jettySize=auto;html=1;exitX=0.5;exitY=1;exitDx=0;exitDy=0;entryX=0.5;entryY=1;entryDx=0;entryDy=0;" edge="1" parent="1" source="8_V0k7mfxFpGvZP9v4ZQ-174" target="8_V0k7mfxFpGvZP9v4ZQ-154">
          <mxGeometry relative="1" as="geometry" />
        </mxCell>
        <mxCell id="8_V0k7mfxFpGvZP9v4ZQ-174" value="" style="ellipse;whiteSpace=wrap;html=1;aspect=fixed;fillColor=none;" vertex="1" parent="1">
          <mxGeometry x="26.419999999999945" y="-2.5" width="80" height="80" as="geometry" />
        </mxCell>
        <mxCell id="8_V0k7mfxFpGvZP9v4ZQ-175" value="Форма растягивается во весь экран" style="text;html=1;align=center;verticalAlign=middle;rounded=0;fillColor=none;strokeWidth=2;strokeColor=none;fontSize=10;whiteSpace=wrap;" vertex="1" parent="1">
          <mxGeometry x="35.169999999999945" y="12.5" width="62.5" height="50" as="geometry" />
        </mxCell>
        <mxCell id="8_V0k7mfxFpGvZP9v4ZQ-176" value="" style="endArrow=none;html=1;rounded=0;strokeWidth=2;" edge="1" parent="1">
          <mxGeometry width="50" height="50" relative="1" as="geometry">
            <mxPoint x="-171.69999999999993" y="-12.5" as="sourcePoint" />
            <mxPoint x="-96.69999999999995" y="-12.5" as="targetPoint" />
          </mxGeometry>
        </mxCell>
        <mxCell id="8_V0k7mfxFpGvZP9v4ZQ-177" value="" style="endArrow=none;html=1;rounded=0;strokeWidth=2;" edge="1" parent="1">
          <mxGeometry width="50" height="50" relative="1" as="geometry">
            <mxPoint x="-73.58000000000006" y="-12.5" as="sourcePoint" />
            <mxPoint x="1.4199999999999449" y="-12.5" as="targetPoint" />
          </mxGeometry>
        </mxCell>
        <mxCell id="8_V0k7mfxFpGvZP9v4ZQ-178" value="" style="endArrow=none;html=1;rounded=0;strokeWidth=2;" edge="1" parent="1">
          <mxGeometry width="50" height="50" relative="1" as="geometry">
            <mxPoint x="28.919999999999945" y="-12.5" as="sourcePoint" />
            <mxPoint x="103.91999999999994" y="-12.5" as="targetPoint" />
          </mxGeometry>
        </mxCell>
        <mxCell id="8_V0k7mfxFpGvZP9v4ZQ-179" value="" style="endArrow=classic;html=1;rounded=0;exitX=0.5;exitY=1;exitDx=0;exitDy=0;" edge="1" parent="1" source="8_V0k7mfxFpGvZP9v4ZQ-162">
          <mxGeometry width="50" height="50" relative="1" as="geometry">
            <mxPoint x="-313.58000000000004" y="-62.5" as="sourcePoint" />
            <mxPoint x="-131.58000000000004" y="-12.5" as="targetPoint" />
          </mxGeometry>
        </mxCell>
        <mxCell id="8_V0k7mfxFpGvZP9v4ZQ-180" value="" style="endArrow=classic;html=1;rounded=0;exitX=0.5;exitY=1;exitDx=0;exitDy=0;" edge="1" parent="1" source="8_V0k7mfxFpGvZP9v4ZQ-164">
          <mxGeometry width="50" height="50" relative="1" as="geometry">
            <mxPoint x="-305.4599999999999" y="-62.5" as="sourcePoint" />
            <mxPoint x="-33.45999999999994" y="-12.5" as="targetPoint" />
          </mxGeometry>
        </mxCell>
        <mxCell id="8_V0k7mfxFpGvZP9v4ZQ-181" value="" style="endArrow=classic;html=1;rounded=0;exitX=0.5;exitY=1;exitDx=0;exitDy=0;" edge="1" parent="1" source="8_V0k7mfxFpGvZP9v4ZQ-166">
          <mxGeometry width="50" height="50" relative="1" as="geometry">
            <mxPoint x="-293.58000000000004" y="-62.5" as="sourcePoint" />
            <mxPoint x="66.41999999999994" y="-12.5" as="targetPoint" />
          </mxGeometry>
        </mxCell>
        <mxCell id="8_V0k7mfxFpGvZP9v4ZQ-182" value="" style="whiteSpace=wrap;html=1;aspect=fixed;fillColor=#000000;" vertex="1" parent="1">
          <mxGeometry x="-137.31999999999982" y="12.5" width="10" height="10" as="geometry" />
        </mxCell>
        <mxCell id="8_V0k7mfxFpGvZP9v4ZQ-183" value="" style="whiteSpace=wrap;html=1;aspect=fixed;fillColor=#000000;" vertex="1" parent="1">
          <mxGeometry x="-38.580000000000055" y="7.5" width="10" height="10" as="geometry" />
        </mxCell>
        <mxCell id="8_V0k7mfxFpGvZP9v4ZQ-184" value="" style="whiteSpace=wrap;html=1;aspect=fixed;fillColor=#000000;" vertex="1" parent="1">
          <mxGeometry x="61.419999999999945" y="7.5" width="10" height="10" as="geometry" />
        </mxCell>
        <mxCell id="8_V0k7mfxFpGvZP9v4ZQ-185" value="" style="endArrow=classic;html=1;rounded=0;entryX=0.476;entryY=-0.007;entryDx=0;entryDy=0;entryPerimeter=0;" edge="1" parent="1" target="8_V0k7mfxFpGvZP9v4ZQ-168">
          <mxGeometry width="50" height="50" relative="1" as="geometry">
            <mxPoint x="-133.58000000000004" y="-12.5" as="sourcePoint" />
            <mxPoint x="-143.58000000000004" y="-42.5" as="targetPoint" />
          </mxGeometry>
        </mxCell>
        <mxCell id="8_V0k7mfxFpGvZP9v4ZQ-186" value="" style="endArrow=classic;html=1;rounded=0;entryX=0.476;entryY=-0.007;entryDx=0;entryDy=0;entryPerimeter=0;" edge="1" parent="1">
          <mxGeometry width="50" height="50" relative="1" as="geometry">
            <mxPoint x="-33.65999999999998" y="-12.5" as="sourcePoint" />
            <mxPoint x="-33.65999999999998" y="-3.5" as="targetPoint" />
          </mxGeometry>
        </mxCell>
        <mxCell id="8_V0k7mfxFpGvZP9v4ZQ-187" value="" style="endArrow=classic;html=1;rounded=0;entryX=0.476;entryY=-0.007;entryDx=0;entryDy=0;entryPerimeter=0;" edge="1" parent="1">
          <mxGeometry width="50" height="50" relative="1" as="geometry">
            <mxPoint x="66.34000000000002" y="-11.5" as="sourcePoint" />
            <mxPoint x="66.34000000000002" y="-2.5" as="targetPoint" />
          </mxGeometry>
        </mxCell>
      </root>
    </mxGraphModel>
  </diagram>
</mxfile>
